<?xml version="1.0" encoding="UTF-8"?>
<svg xmlns="http://www.w3.org/2000/svg" xmlns:xlink="http://www.w3.org/1999/xlink" width="1280pt" height="720pt" viewBox="0 0 1280 720" version="1.1">
<defs>
<g>
<symbol overflow="visible" id="glyph0-0">
<path style="stroke:none;" d="M 0.890625 1.0625 L 8 1.0625 L 8 -7.828125 L 0.890625 -7.828125 Z M 4.453125 -3.75 L 1.625 -7.375 L 7.265625 -7.375 Z M 4.734375 -3.375 L 7.5625 -7.015625 L 7.5625 0.265625 Z M 1.625 0.625 L 4.453125 -3.015625 L 7.265625 0.625 Z M 1.328125 -7.015625 L 4.15625 -3.375 L 1.328125 0.265625 Z "/>
</symbol>
<symbol overflow="visible" id="glyph0-1">
<path style="stroke:none;" d="M 5.390625 -6.40625 L 5.390625 -1.46875 L 6.046875 -1.46875 L 6.046875 -6.40625 Z M 7.5 -7.21875 L 7.5 -0.1875 C 7.5 -0.03125 7.453125 0.015625 7.296875 0.03125 C 7.125 0.03125 6.5625 0.03125 5.96875 0.015625 C 6.078125 0.21875 6.171875 0.53125 6.203125 0.71875 C 6.921875 0.71875 7.453125 0.6875 7.765625 0.59375 C 8.046875 0.484375 8.15625 0.28125 8.15625 -0.1875 L 8.15625 -7.21875 Z M 3.265625 -5.546875 C 3.5 -5.265625 3.75 -4.953125 3.96875 -4.625 L 1.921875 -4.53125 C 2.171875 -5.0625 2.421875 -5.71875 2.65625 -6.28125 L 5.015625 -6.28125 L 5.015625 -6.890625 L 0.453125 -6.890625 L 0.453125 -6.28125 L 1.90625 -6.28125 C 1.734375 -5.71875 1.484375 -5.03125 1.25 -4.5 L 0.421875 -4.46875 L 0.484375 -3.84375 L 4.359375 -4.0625 C 4.484375 -3.859375 4.578125 -3.671875 4.65625 -3.515625 L 5.1875 -3.828125 C 4.921875 -4.375 4.296875 -5.203125 3.765625 -5.828125 Z M 0.359375 -0.21875 L 0.453125 0.4375 C 1.640625 0.28125 3.390625 0.03125 5.046875 -0.203125 L 5.03125 -0.828125 L 3.0625 -0.5625 L 3.0625 -2.046875 L 4.75 -2.046875 L 4.75 -2.65625 L 3.0625 -2.65625 L 3.0625 -3.71875 L 2.40625 -3.71875 L 2.40625 -2.65625 L 0.71875 -2.65625 L 0.71875 -2.046875 L 2.40625 -2.046875 L 2.40625 -0.484375 Z "/>
</symbol>
</g>
</defs>
<g id="surface57">
<g style="fill:rgb(100%,100%,100%);fill-opacity:1;">
  <use xlink:href="#glyph0-1" x="30" y="30.311523"/>
</g>
</g>
</svg>
